<svg width="433" height="519" viewBox="0 0 433 519" fill="none" xmlns="http://www.w3.org/2000/svg">
<g clip-path="url(#clip0_3_7)">
<path d="M280.995 518.211C274.588 518.211 268.208 518.012 262.017 517.63C255.637 517.24 249.23 516.643 242.985 515.855C240.237 515.515 237.749 515.174 235.379 514.818C228.342 513.764 221.177 512.429 214.085 510.836C211.652 510.297 209.282 509.733 207.029 509.152C206.236 508.961 205.425 508.754 204.623 508.546C201.199 507.659 197.883 506.738 194.783 505.809C194.585 505.759 194.35 505.684 194.116 505.618C191.322 504.788 188.403 503.868 185.447 502.88C182.951 502.051 180.428 501.171 177.733 500.193C168.938 496.999 160.179 493.324 151.699 489.275C106.714 467.773 68.8025 435.428 42.0385 395.734C14.5445 354.903 0 307.808 0 259.536C0 190.441 29.2332 125.478 82.3017 76.6252C135.37 27.7722 205.939 0.869385 280.995 0.869385C356.052 0.869385 426.621 27.7722 479.698 76.6252C532.776 125.478 562 190.441 562 259.536C562 300.135 552.069 339 532.496 375.044C513.825 409.422 486.493 440.107 453.439 463.775C437.678 475.065 420.61 484.821 402.686 492.751C400.659 493.656 398.487 494.576 395.874 495.663L395.585 495.779C395.27 495.912 394.963 496.036 394.648 496.161C392.684 496.966 390.683 497.754 388.71 498.5L387.817 498.849C387.286 499.056 386.754 499.255 386.213 499.446C378.968 502.142 371.534 504.589 364.099 506.688C358.584 508.264 352.808 509.724 346.923 511.027C325.485 515.788 303.299 518.202 280.995 518.202V518.211ZM280.995 2.5534C206.417 2.5534 136.307 29.282 83.5813 77.8281C30.8462 126.341 1.80229 190.881 1.80229 259.536C1.80229 307.501 16.2567 354.289 43.5885 394.846C70.1723 434.284 107.849 466.429 152.546 487.791C160.972 491.814 169.677 495.464 178.418 498.641C181.094 499.62 183.6 500.491 186.078 501.312C189.024 502.291 191.917 503.204 194.702 504.033C194.918 504.1 195.125 504.158 195.332 504.216C198.432 505.145 201.722 506.058 205.128 506.945C205.921 507.153 206.714 507.36 207.507 507.551C209.751 508.123 212.103 508.687 214.518 509.227C221.565 510.811 228.675 512.138 235.677 513.184C238.029 513.54 240.498 513.88 243.228 514.221C249.428 515 255.79 515.598 262.134 515.979C268.28 516.361 274.624 516.56 280.986 516.56C303.146 516.56 325.188 514.162 346.5 509.434C352.348 508.14 358.089 506.688 363.568 505.128C370.948 503.038 378.346 500.616 385.546 497.928C386.087 497.737 386.601 497.538 387.114 497.339L388.178 496.924C390.079 496.202 392.008 495.439 393.918 494.659C394.243 494.535 394.54 494.41 394.837 494.286L395.126 494.17C397.721 493.092 399.875 492.171 401.893 491.275C419.7 483.394 436.669 473.705 452.321 462.481C485.159 438.954 512.32 408.468 530.874 374.314C550.321 338.502 560.189 299.886 560.189 259.544C560.189 190.889 531.145 126.349 478.41 77.8115C425.693 29.2571 355.574 2.52851 280.995 2.52851V2.5534Z" fill="#6C63FF"/>
<path d="M255.475 148.399C255.475 148.399 206.119 153.526 202.938 223.881C200.289 282.507 194.864 315.183 220.772 327.411C230.036 331.783 240.921 332.164 250.816 329.178L356.584 297.165C356.584 297.165 358.179 191.636 321.556 165.986C284.933 140.336 255.484 148.399 255.484 148.399H255.475Z" fill="#2F2E41"/>
<path d="M313.779 310.123L260.251 326.324V255.396H308.814L313.779 310.123Z" fill="#F6A6A9"/>
<path d="M385.889 498.683C378.68 501.371 371.326 503.785 363.838 505.908C358.206 507.518 352.492 508.953 346.716 510.23C325.638 514.909 303.623 517.381 280.995 517.381C274.633 517.381 268.325 517.19 262.08 516.8C255.691 516.411 249.365 515.822 243.111 515.033C240.57 514.718 238.047 514.378 235.533 513.997C228.369 512.926 221.286 511.591 214.311 510.023C211.959 509.5 209.616 508.944 207.282 508.347C206.48 508.156 205.678 507.949 204.885 507.742C201.595 506.887 198.324 505.983 195.08 505.012C194.864 504.954 194.639 504.888 194.422 504.822C191.521 503.959 188.637 503.046 185.771 502.092C183.194 501.238 180.635 500.342 178.085 499.413L233.694 330.92L236.01 323.91L244.229 299.015L244.292 298.816L244.355 298.633H341.471L342.12 301.545L358.043 373.253L369.515 424.934L380.797 475.729L385.438 496.634L385.889 498.683Z" fill="#DDDEDF"/>
<path d="M259.674 298.675L253.141 323.587L252.231 327.079L251.753 328.896L222.772 439.485L204.885 507.742C201.595 506.887 198.324 505.983 195.08 505.012C194.864 504.954 194.639 504.888 194.422 504.822C191.521 503.959 188.637 503.046 185.771 502.092C183.194 501.238 180.635 500.342 178.085 499.413C169.199 496.186 160.539 492.544 152.132 488.529C170.902 403.001 189.745 318.908 192.809 311.865C194.152 308.771 197.91 306.398 203.001 304.573C204.47 304.042 206.056 303.561 207.723 303.121C218.654 300.251 233.244 299.197 244.184 298.824H244.292C248.653 298.683 252.429 298.642 255.151 298.642C257.872 298.642 259.674 298.683 259.674 298.683V298.675Z" fill="#DDDEDF"/>
<path d="M266.874 275.032C296.333 275.032 320.213 253.048 320.213 225.93C320.213 198.812 296.333 176.828 266.874 176.828C237.416 176.828 213.536 198.812 213.536 225.93C213.536 253.048 237.416 275.032 266.874 275.032Z" fill="#F6A6A9"/>
<path d="M252.294 166.724C252.294 166.724 222.944 276.434 255.583 327.734L209.607 318.742C209.607 318.742 191.791 198.654 227.621 176.828L252.303 166.724H252.294Z" fill="#2F2E41"/>
<path opacity="0.1" d="M243.111 515.033C240.57 514.718 238.047 514.378 235.533 513.996C228.369 512.926 221.286 511.591 214.311 510.023C211.959 509.5 209.616 508.944 207.282 508.347L210.283 487.16L218.294 430.559L221.898 442.82L225.215 454.11L243.111 515.033Z" fill="#272223"/>
<path opacity="0.1" d="M394.297 495.406C392.332 496.211 390.359 496.99 388.367 497.745C388.07 497.862 387.772 497.978 387.475 498.094C386.952 498.293 386.43 498.492 385.898 498.683C378.689 501.371 371.335 503.785 363.847 505.908C346.058 494.319 332.352 478.176 324.44 459.478L320.222 449.514L293.206 377.475L353.06 435.287L364 451.232L380.806 475.72L394.306 495.398H394.297V495.406Z" fill="#272223"/>
<path d="M452.889 463.128C437.263 474.327 420.322 484.033 402.299 492.013C400.055 493.009 397.784 493.971 395.504 494.917C395.099 495.082 394.702 495.248 394.297 495.406C392.332 496.211 390.359 496.99 388.367 497.745C387.385 497.397 386.412 497.024 385.447 496.634C375.562 492.652 366.731 486.596 358.936 479.52C348.464 469.988 339.885 458.59 333.154 447.822C329.838 442.521 326.972 437.37 324.548 432.674L324.512 432.6C317.979 419.882 314.743 410.525 314.743 410.525L306.047 377.649L303.659 368.632L290.07 317.298L285.132 298.633L292.503 298.335L312.644 297.522L334.857 296.617C339.976 296.974 344.968 297.853 349.771 299.231C365.19 303.586 378.599 312.893 387.403 325.702C411.608 360.934 450.366 423.076 452.898 463.128H452.889Z" fill="#DDDEDF"/>
<path d="M199.811 275.762C211.499 271.888 242.435 271.872 256.313 276.185C259.008 277.023 260.639 279.545 260.17 282.125L259.62 285.186C260.828 285.02 262.008 284.705 263.126 284.232C266.433 282.838 272.948 280.947 279.527 283.967C284.122 286.074 287.358 290.047 288.493 294.668C291.206 305.718 284.366 311.832 284.366 311.832L275.255 319.704C267.622 326.291 259.296 332.164 250.402 337.225L250.221 337.324L253.465 319.356C255.295 322.317 259.431 323.288 262.576 321.496C270.524 316.967 283.51 307.891 281.933 297.588C280.833 290.404 276.499 288.878 272.335 289.201C267.677 289.566 263.612 292.262 261.621 296.153C261.143 297.082 260.359 297.845 259.386 298.343L257.043 299.521L250.176 337.606C249.87 339.315 248.68 340.792 246.995 341.555C230.847 348.847 213.419 345.064 207.39 343.363C206.011 342.974 204.831 342.136 204.092 340.991L202.794 339.008C202.343 338.328 202.073 337.556 201.983 336.768L195.99 281.337C195.729 278.89 197.306 276.6 199.82 275.762H199.811Z" fill="#6C63FF"/>
<path d="M254.934 278.707C254.934 280.01 242.778 281.063 227.783 281.063C212.788 281.063 200.631 280.01 200.631 278.707C200.631 277.405 212.788 276.351 227.783 276.351C242.778 276.351 254.934 277.405 254.934 278.707Z" fill="#DEDFE0"/>
<path d="M268.064 330.737C257.845 317.216 257.476 301.313 267.235 295.207C276.994 289.102 293.179 295.108 303.398 308.638C307.561 313.989 310.211 320.194 311.13 326.739L353.592 384.535L322.43 402.702L283.879 343.803C277.49 340.684 272.065 336.204 268.064 330.746V330.737Z" fill="#F6A6A9"/>
<path d="M293.197 377.483L328.288 347.752L397.667 407.223L333.145 447.822L293.197 377.483Z" fill="#DDDEDF"/>
<path opacity="0.1" d="M391.539 415.469L394.297 434.972L375.913 415.469V395.8L391.539 415.469Z" fill="#272223"/>
</g>
<defs>
<clipPath id="clip0_3_7">
<rect width="562" height="517.341" fill="white" transform="translate(0 0.869385)"/>
</clipPath>
</defs>
</svg>
