<svg width="408" height="342" viewBox="0 0 408 342" fill="none" xmlns="http://www.w3.org/2000/svg">
<g opacity="0.7">
<path d="M212.059 68.5097C207.534 64.2491 201.489 62.9557 198.559 65.6206C195.628 68.2855 196.922 73.8986 201.449 78.1602C203.233 79.8855 205.437 81.1906 207.877 81.9663L227.299 99.7947L236.148 91.1849L216.062 74.5234C215.266 72.2518 213.894 70.1897 212.059 68.5097Z" fill="#FFB6B6"/>
<path d="M274.171 53.7934L253.809 95.5845L221.292 79.3015L209.655 85.0152C209.655 85.0152 236.236 126.127 254.437 121.447C272.637 116.767 304.956 74.3315 299.133 61.2347C293.31 48.1379 274.171 53.7934 274.171 53.7934Z" fill="#E6E6E6"/>
<path d="M179.778 77.3833C184.506 73.3143 186.068 67.7597 183.268 64.977C180.469 62.1943 174.368 63.2376 169.64 67.3086C167.727 68.9108 166.257 70.9135 165.352 73.1492L145.558 90.6237L154.62 99.0419L173.171 80.9215C175.648 80.2472 177.913 79.0339 179.778 77.3833Z" fill="#A0616A"/>
<path d="M80.0731 80.077L118.279 117.707C118.279 117.707 126.859 125.561 140.974 114.235C155.09 102.91 170.784 84.3286 170.784 84.3286L161.979 75.464L146.384 88.3354C146.384 88.3354 137.125 91.782 136.482 94.0121C135.838 96.2422 137.638 97.1646 134.745 96.45C131.852 95.7354 131.796 94.1412 131.615 96.5589C131.433 98.9766 133.2 101.802 129.858 99.0653C126.516 96.3284 125.519 97.9934 125.519 97.9934L101.1 68.0697C101.1 68.0697 85.3215 56.5265 80.7852 66.8737C76.249 77.2209 80.0731 80.077 80.0731 80.077Z" fill="#6C63FF"/>
<path d="M283.1 332.314L268.252 332.313L261.189 279.331L283.103 279.332L283.1 332.314Z" fill="#FFB6B6"/>
<path d="M232.23 332.003C231.767 332.723 231.523 335.048 231.523 335.886C231.523 338.46 233.78 340.548 236.563 340.548H282.545C284.444 340.548 285.983 339.124 285.983 337.367V335.596C285.983 335.596 288.258 330.273 283.574 323.713C283.574 323.713 277.754 328.85 269.056 320.804L266.492 316.505L247.926 329.066L237.635 330.238C235.384 330.495 233.388 330.198 232.23 332.003Z" fill="#2F2E41"/>
<path d="M111.972 87.8153H75.1763V37.5163L111.972 37.5163V87.8153Z" fill="#2F2E41"/>
<path d="M83.4359 72.4784L84.7245 58.072H101.858L105.657 73.3353L83.4359 72.4784Z" fill="#A0616A"/>
<path opacity="0.1" d="M83.4359 72.4784L84.7245 58.072H101.858L105.657 73.3353L83.4359 72.4784Z" fill="black"/>
<path d="M271.865 56.4751L271.565 37.9485L283.914 30.8267L297.343 46.0229L271.865 56.4751Z" fill="#FFB6B6"/>
<path opacity="0.1" d="M271.865 56.4751L271.066 38.4101L283.914 30.8267L279.549 53.1829L271.865 56.4751Z" fill="black"/>
<path d="M95.9896 62.6558C85.6459 62.6558 77.2607 54.8985 77.2607 45.3294C77.2607 35.7603 85.6459 28.003 95.9896 28.003C106.333 28.003 114.718 35.7603 114.718 45.3294C114.718 54.8985 106.333 62.6558 95.9896 62.6558Z" fill="#A0616A"/>
<path d="M100.714 27.1008C100.714 27.1008 100.714 19.9878 93.5744 21.512C86.4348 23.0363 84.238 25.5766 84.238 25.5766C84.238 25.5766 81.4921 29.6412 77.0985 30.1493C72.7049 30.6573 68.8605 42.343 69.4097 44.8833C69.9589 47.4237 72.7049 54.0286 68.8605 57.077C65.0161 60.1254 59.5242 64.6981 61.1718 69.2707C62.8194 73.8434 67.7621 85.529 67.7621 85.529C67.7621 85.529 53.976 87.3933 55.1025 95.3524C55.1025 95.3524 61.721 90.6097 70.5081 90.6097C79.2953 90.6097 78.1969 75.8617 78.1969 75.8617C78.1969 75.8617 78.7461 66.7304 80.3937 64.19C82.0413 61.6497 79.8445 47.4237 88.0824 39.8026C96.3204 32.1815 100.714 27.1008 100.714 27.1008Z" fill="#2F2E41"/>
<path d="M98.5172 25.5766C98.5172 25.5766 108.952 27.6089 112.796 37.2623C116.641 46.9156 114.699 48.7119 114.699 48.7119C114.699 48.7119 115.549 54.5247 120.214 56.563C124.879 58.6013 121.034 67.2385 121.034 67.2385C121.034 67.2385 122.133 75.8757 136.961 78.9241C151.789 81.9725 118.366 105.349 118.366 105.349C118.366 105.349 120.769 94.3162 105.392 93.8081C90.014 93.3001 108.403 67.2385 108.403 67.2385L110.05 50.4721C110.05 50.4721 106.755 31.1654 96.8696 28.625C86.9841 26.0847 98.5172 25.5766 98.5172 25.5766Z" fill="#2F2E41"/>
<path d="M271.826 43.7136C259.696 43.7136 249.863 34.6167 249.863 23.395C249.863 12.1734 259.696 3.07645 271.826 3.07645C283.956 3.07645 293.79 12.1734 293.79 23.395C293.79 34.6167 283.956 43.7136 271.826 43.7136Z" fill="#FFB6B6"/>
<path d="M241.873 178.983L262.333 307.783H288.002L284.589 234.261L282.793 195.602L288.002 177.201C288.002 177.201 290.378 173.11 292.379 168.152C294.634 162.557 296.416 155.849 293.771 152.669C292.798 151.496 290.268 150.628 286.83 149.982C284.729 149.585 282.284 149.275 279.644 149.035C264.464 147.646 242.871 148.514 242.871 148.514L242.322 165.272L242.018 174.629L241.873 178.983Z" fill="#2F2E41"/>
<path d="M367.639 311.793L354.558 318.293L321.231 274.713L340.536 265.119L367.639 311.793Z" fill="#FFB6B6"/>
<path d="M322.667 333.792C322.628 334.629 323.603 336.784 324.031 337.522C325.349 339.79 328.404 340.641 330.856 339.422L371.362 319.289C373.034 318.458 373.662 316.529 372.763 314.982L371.857 313.422C371.857 313.422 371.138 307.737 363.656 304.008C363.656 304.008 361.157 311.082 349.379 307.802L344.92 305.139L334.992 324.333L326.526 329.871C324.674 331.082 322.764 331.695 322.667 333.792Z" fill="#2F2E41"/>
<path d="M242.018 174.629L252.876 194.771L284.589 234.261L336.796 299.275L359.407 288.038L297.429 191.498L292.598 173.004C292.598 173.004 292.598 171.005 292.379 168.152C291.95 162.506 290.662 153.509 286.83 149.982C286.311 149.502 285.747 149.123 285.133 148.869C283.98 148.389 282.064 148.504 279.644 149.035C269.534 151.27 250.666 160.867 242.322 165.272L242.018 174.629Z" fill="#2F2E41"/>
<path d="M84.831 333.93L97.5973 333.929L103.67 288.374L84.8284 288.375L84.831 333.93Z" fill="#A0616A"/>
<path d="M128.57 333.662C128.968 334.282 129.177 336.281 129.177 337.001C129.177 339.215 127.237 341.009 124.844 341.009H85.3085C83.676 341.009 82.3525 339.785 82.3525 338.275V336.752C82.3525 336.752 80.3967 332.175 84.4233 326.534C84.4233 326.534 89.4279 330.951 96.9061 324.033L99.1113 320.337L115.074 331.137L123.922 332.145C125.858 332.365 127.574 332.111 128.57 333.662Z" fill="#2F2E41"/>
<path d="M34.5391 320.012L46.3406 324.516L70.7378 284.549L53.3199 277.901L34.5391 320.012Z" fill="#A0616A"/>
<path d="M75.0816 335.199C75.1936 335.912 74.5633 337.834 74.2664 338.5C73.3536 340.546 70.8204 341.52 68.6082 340.676L32.0616 326.724C30.5526 326.148 29.8339 324.55 30.4567 323.153L31.0846 321.746C31.0846 321.746 31.1637 316.825 37.2118 313.032C37.2118 313.032 40.0168 318.881 49.782 315.124L53.3444 312.486L63.6472 328.103L71.4107 332.157C73.1092 333.043 74.8008 333.414 75.0816 335.199Z" fill="#2F2E41"/>
<path d="M78.9734 177.662L84.1832 196.064L82.7959 225.923L80.4955 275.518L80.4306 276.917L80.1711 282.494L78.9735 308.245H104.643L116.071 236.306L125.103 179.444L124.155 150.49L124.105 148.975C124.105 148.975 78.195 147.129 73.2048 153.13C68.2146 159.132 78.9734 177.662 78.9734 177.662Z" fill="#2F2E41"/>
<path d="M43.2587 289.732L47.6102 291.815L63.7035 299.519L66.0588 300.646L80.1711 282.494L116.07 236.306L125.103 179.444L124.155 150.49C120.093 149.294 116.844 148.805 115.197 149.515C107.782 152.724 108.136 173.757 108.136 173.757L103.62 192.315L82.7959 225.923L43.2587 289.732Z" fill="#2F2E41"/>
<path d="M136.073 295.411C136.403 294.476 138.907 294.887 139.147 294.051C139.387 293.218 136.985 292.519 135.142 290.17C134.81 289.747 132.716 287.078 133.519 285.955C135.041 283.827 145.632 289.127 148.174 286.153C148.732 285.5 148.961 284.38 150.623 282.295C151.285 281.465 151.709 281.065 152.216 281.077C152.935 281.093 153.192 281.926 154.322 283.433C156.017 285.694 156.629 285.411 157.746 287.263C158.575 288.638 158.673 289.517 159.271 289.569C160.117 289.642 160.466 287.93 161.5 287.864C162.555 287.796 163.61 289.488 164.133 290.81C165.115 293.29 164.507 295.186 164.372 297.075C164.226 299.129 164.57 302.135 166.982 305.993L189.729 339.521C184.844 332.686 170.976 314.048 165.389 307.211C163.776 305.237 162.043 303.256 159.375 302.883C156.807 302.524 153.682 303.699 149.32 303.631C148.81 303.623 147.393 303.584 147.048 302.889C146.763 302.314 147.47 301.814 147.213 301.274C146.867 300.55 145.313 300.86 143.196 300.379C141.702 300.04 140.687 299.479 139.815 298.997C139.552 298.852 135.633 296.656 136.073 295.411Z" fill="#F2F2F2"/>
<path d="M195.653 303.239C196.245 303.119 196.749 304.375 197.262 304.242C197.773 304.111 197.45 302.818 198.165 301.304C198.294 301.031 199.106 299.31 199.933 299.351C201.501 299.428 201.745 305.766 204.056 306.062C204.563 306.127 205.224 305.908 206.81 306.061C207.441 306.122 207.776 306.199 207.916 306.433C208.114 306.764 207.747 307.121 207.273 308.069C206.563 309.491 206.89 309.687 206.229 310.729C205.739 311.502 205.301 311.8 205.446 312.086C205.651 312.492 206.66 312.156 206.994 312.606C207.334 313.066 206.741 314.033 206.191 314.652C205.158 315.814 203.977 316.085 202.935 316.569C201.804 317.095 200.308 318.118 198.957 320.326L187.733 340.329C189.949 336.139 195.836 324.464 197.852 319.955C198.433 318.653 198.984 317.294 198.413 315.975C197.862 314.705 196.337 313.626 195.114 311.625C194.971 311.392 194.583 310.737 194.852 310.38C195.075 310.084 195.544 310.262 195.757 309.989C196.041 309.623 195.428 309.007 195.072 307.906C194.822 307.13 194.826 306.508 194.83 305.973C194.832 305.811 194.866 303.398 195.653 303.239Z" fill="#F2F2F2"/>
<path d="M184.455 308.119L184.102 305.106L183.886 304.917C182.885 304.041 182.258 303.114 182.023 302.159C181.986 302.008 181.957 301.854 181.927 301.698C181.81 301.078 181.665 300.308 181.021 299.508C180.66 299.062 179.707 298.055 178.724 298.407C178.459 298.499 178.279 298.658 178.155 298.827C178.124 298.797 178.092 298.768 178.058 298.736C177.633 298.355 177.336 298.215 177.05 298.08C176.83 297.976 176.603 297.87 176.218 297.585C176.05 297.461 175.915 297.348 175.801 297.254C175.456 296.969 175.015 296.636 174.41 296.768C173.77 296.93 173.55 297.495 173.404 297.869C173.144 298.537 173.064 298.996 173.011 299.301C172.992 299.412 172.969 299.537 172.953 299.578C172.812 299.905 171.052 299.99 170.39 300.025C168.901 300.1 167.612 300.164 167.302 301.108C167.08 301.782 167.543 302.518 168.719 303.353C169.086 303.613 169.452 303.792 169.771 303.926C169.575 304.098 169.418 304.331 169.409 304.649C169.387 305.402 170.221 305.979 171.888 306.368C172.303 306.466 172.86 306.596 173.589 306.563C173.932 306.547 174.233 306.498 174.489 306.453C174.528 306.588 174.598 306.729 174.724 306.862C175.095 307.255 175.694 307.355 176.508 307.133C177.405 306.902 178.115 306.587 178.741 306.31C179.288 306.069 179.759 305.863 180.155 305.807C180.89 305.712 181.576 306.132 182.398 306.692L184.455 308.119Z" fill="#F2F2F2"/>
<path d="M178.583 290.955L181.823 291.404L182.076 291.258C183.246 290.584 184.374 290.259 185.432 290.291C185.6 290.296 185.768 290.309 185.939 290.322C186.616 290.374 187.458 290.439 188.458 290.066C189.016 289.857 190.311 289.259 190.192 288.29C190.163 288.029 190.042 287.829 189.898 287.675C189.936 287.654 189.975 287.633 190.017 287.61C190.524 287.327 190.745 287.097 190.959 286.875C191.123 286.704 191.292 286.528 191.687 286.256C191.86 286.137 192.011 286.045 192.139 285.967C192.524 285.73 192.985 285.42 193 284.846C192.993 284.231 192.458 283.891 192.103 283.666C191.471 283.264 191.011 283.075 190.706 282.951C190.595 282.905 190.47 282.854 190.431 282.829C190.125 282.62 190.483 281.023 190.614 280.422C190.914 279.07 191.173 277.901 190.265 277.384C189.616 277.014 188.729 277.242 187.558 278.083C187.193 278.345 186.913 278.627 186.692 278.878C186.563 278.659 186.358 278.46 186.028 278.371C185.247 278.161 184.431 278.761 183.602 280.154C183.394 280.5 183.117 280.965 182.967 281.626C182.896 281.937 182.871 282.219 182.853 282.46C182.702 282.46 182.537 282.487 182.366 282.566C181.861 282.798 181.605 283.309 181.63 284.093C181.644 284.955 181.793 285.67 181.924 286.3C182.037 286.851 182.133 287.325 182.091 287.693C182.004 288.376 181.391 288.883 180.598 289.476L178.583 290.955Z" fill="#F2F2F2"/>
<path d="M178.146 281.953L177.794 278.939L177.577 278.75C176.576 277.874 175.95 276.947 175.715 275.993C175.677 275.841 175.648 275.687 175.619 275.531C175.502 274.911 175.356 274.141 174.712 273.341C174.352 272.895 173.399 271.888 172.415 272.24C172.15 272.332 171.971 272.491 171.846 272.66C171.815 272.631 171.783 272.601 171.749 272.57C171.324 272.188 171.027 272.048 170.741 271.913C170.521 271.81 170.294 271.703 169.91 271.419C169.741 271.294 169.606 271.182 169.492 271.088C169.147 270.803 168.706 270.469 168.102 270.601C167.461 270.763 167.241 271.328 167.096 271.703C166.835 272.37 166.755 272.83 166.702 273.134C166.683 273.245 166.661 273.371 166.644 273.411C166.504 273.738 164.743 273.823 164.081 273.858C162.592 273.933 161.304 273.998 160.994 274.941C160.771 275.616 161.235 276.352 162.411 277.186C162.777 277.446 163.143 277.625 163.462 277.759C163.266 277.931 163.11 278.164 163.1 278.482C163.078 279.235 163.913 279.812 165.58 280.202C165.994 280.299 166.551 280.429 167.28 280.396C167.624 280.38 167.924 280.332 168.181 280.286C168.219 280.421 168.289 280.562 168.415 280.695C168.786 281.088 169.386 281.188 170.199 280.967C171.097 280.735 171.806 280.42 172.432 280.144C172.979 279.903 173.45 279.697 173.846 279.64C174.582 279.545 175.268 279.966 176.089 280.525L178.146 281.953Z" fill="#F2F2F2"/>
<path d="M188.654 339.693L189.227 339.169L190.023 339.092C190.019 339.022 190.024 338.86 190.03 338.607C190.061 337.221 190.156 333.002 189.521 326.519C189.077 321.994 188.336 317.4 187.318 312.864C186.299 308.32 185.24 304.94 184.39 302.222C183.749 300.173 183.101 298.229 182.469 296.336C180.783 291.277 179.19 286.499 178.204 281.048C177.983 279.832 177.524 277.299 178.463 274.309C179.007 272.576 179.94 270.944 181.235 269.46L179.981 268.524C178.552 270.163 177.521 271.97 176.917 273.895C175.876 277.21 176.375 279.969 176.615 281.295C177.619 286.842 179.228 291.667 180.931 296.774C181.56 298.661 182.205 300.596 182.844 302.637C183.686 305.329 184.735 308.68 185.742 313.165C186.748 317.647 187.48 322.185 187.918 326.653C188.545 333.054 188.451 337.21 188.42 338.576C188.404 339.305 188.4 339.458 188.654 339.693Z" fill="#F2F2F2"/>
<path d="M184.674 271.176C184.738 271.162 184.803 271.147 184.868 271.129C186.19 270.787 187.25 269.79 188.021 268.168C188.381 267.405 188.466 266.602 188.636 265C188.663 264.753 188.78 263.504 188.636 261.849C188.542 260.767 188.416 260.332 188.098 259.991C187.744 259.611 187.268 259.393 186.765 259.284C186.751 259.141 186.701 259.001 186.6 258.868C186.186 258.317 185.493 258.543 185.118 258.661C184.928 258.724 184.692 258.804 184.427 258.845C184.009 258.912 183.76 258.844 183.383 258.743C183.022 258.646 182.574 258.526 181.953 258.536C180.73 258.552 179.824 259.06 179.525 259.228C177.952 260.102 177.409 261.498 176.78 263.113C176.655 263.437 176.241 264.607 176.144 266.115C176.074 267.202 176.228 267.647 176.405 267.965C176.766 268.62 177.318 268.923 178.689 269.561C180.121 270.23 180.84 270.564 181.429 270.736C182.8 271.134 183.661 271.384 184.674 271.176Z" fill="#F2F2F2"/>
<path d="M0.943573 341.128C0.943573 341.428 1.20581 341.67 1.52927 341.67H407.446V340.587H1.52927C1.20581 340.587 0.943573 340.829 0.943573 341.128Z" fill="#E6E6E6"/>
<path d="M294.519 42.1033L269.569 53.1829C269.569 53.1829 243.121 125.662 243.121 129.355C243.121 133.048 235.635 135.357 240.126 139.512C244.618 143.666 231.767 147.185 238.691 150.504C245.616 153.823 288.81 171.976 293.613 170.339C306.86 165.824 293.052 149.233 293.052 149.233C293.052 149.233 303.003 141.82 301.506 138.127C300.009 134.433 310.488 63.8009 310.488 63.8009L294.519 42.1033Z" fill="#E6E6E6"/>
<path d="M273.168 28.2617L270.343 33.4885C270.343 33.4885 267.518 24.0803 262.998 21.9896C258.478 19.8989 257.913 16.7628 257.913 16.7628C257.913 16.7628 252.263 23.5576 248.308 21.9896C244.353 20.4216 242.658 19.3762 247.178 13.1041C251.698 6.83195 250.568 9.96801 250.568 9.96801C250.568 9.96801 254.523 4.74123 253.958 6.30927C253.393 7.8773 257.348 2.12784 257.348 3.69587C257.348 5.26391 260.173 0.559806 260.173 2.12784C260.173 3.69587 272.038 -1.5309 270.343 0.559813C268.648 2.65053 280.513 -3.62161 286.162 4.74123C291.812 13.1041 299.646 11.5575 296.859 16.7736C294.072 21.9896 295.202 36.1019 295.202 36.1019H287.41C287.41 36.1019 279.383 21.9896 273.168 28.2617Z" fill="#2F2E41"/>
<path d="M106.889 72.5722L106.431 72.4527L83.9337 66.5708L65.969 89.1916L77.9454 136.28L73.4543 155.208C73.4543 155.208 109.883 146.436 124.354 153.823C124.354 153.823 125.352 149.613 124.354 147.563C123.356 145.513 121.859 136.982 123.356 133.168C124.853 129.355 120.362 111.351 120.362 111.351C120.362 111.351 121.859 99.3479 115.372 93.3465C108.885 87.345 106.889 72.5722 106.889 72.5722Z" fill="#6C63FF"/>
<path d="M127.321 157.6L206.376 121.254C206.77 121.073 207.113 120.824 207.398 120.514L219.733 107.065C220.551 106.173 220.728 104.914 220.184 103.858L197.054 58.9653C196.649 58.1786 195.895 57.5977 194.985 57.3714C194.074 57.1455 193.107 57.2986 192.33 57.7916L136.577 93.1711C135.433 93.8972 134.922 95.2141 135.305 96.448L146.624 132.889C146.934 133.886 146.539 134.974 145.643 135.596L123.25 151.133C122.044 151.97 121.628 153.496 122.259 154.762L122.967 156.181C123.335 156.918 123.993 157.472 124.82 157.742C125.171 157.856 125.532 157.913 125.892 157.913C126.382 157.913 126.868 157.808 127.321 157.6Z" fill="#6C63FF"/>
<path d="M127.952 148.754L149.959 131.816C150.148 131.668 150.298 131.488 150.403 131.29C150.603 130.916 150.642 130.468 150.493 130.057L137.952 96.1118C137.628 95.2346 137.977 94.2559 138.806 93.7297L191.053 60.6386C191.587 60.297 192.256 60.1908 192.884 60.3431C193.518 60.4955 194.042 60.8925 194.332 61.4326L216.358 102.81C216.693 103.434 216.668 104.149 216.298 104.745C216.253 104.828 216.199 104.906 216.134 104.98L205.055 118.506C204.841 118.765 204.561 118.977 204.247 119.12L130.362 152.216C130.053 152.355 129.719 152.424 129.384 152.424C128.805 152.424 128.227 152.216 127.797 151.814C127.748 151.764 127.698 151.718 127.648 151.662C127.298 151.27 127.119 150.767 127.144 150.254C127.174 149.672 127.468 149.128 127.952 148.754Z" fill="#F2F2F2"/>
<path d="M207.691 100.271C207.508 100.271 207.332 100.178 207.245 100.017L189.335 67.1007C189.211 66.8728 189.31 66.5953 189.556 66.4808C189.803 66.3656 190.102 66.4578 190.226 66.6855L208.136 99.602C208.26 99.8299 208.161 100.107 207.915 100.222C207.843 100.255 207.766 100.271 207.691 100.271Z" fill="#6C63FF"/>
<path d="M198.209 105.811C198.027 105.811 197.851 105.718 197.763 105.557L179.854 72.6405C179.73 72.4127 179.829 72.1352 180.075 72.0207C180.322 71.9052 180.621 71.9979 180.745 72.2253L198.655 105.142C198.779 105.37 198.679 105.647 198.433 105.762C198.361 105.795 198.285 105.811 198.209 105.811Z" fill="#6C63FF"/>
<path d="M190.225 110.428C190.042 110.428 189.867 110.335 189.779 110.174L171.869 77.257C171.745 77.0291 171.844 76.7517 172.091 76.6371C172.338 76.522 172.637 76.6141 172.761 76.8418L190.67 109.758C190.794 109.986 190.695 110.264 190.449 110.378C190.377 110.412 190.3 110.428 190.225 110.428Z" fill="#6C63FF"/>
<path d="M218.492 105.969C212.299 104.276 206.336 105.86 205.172 109.506C204.009 113.152 208.085 117.478 214.28 119.171C216.744 119.878 219.356 120.029 221.897 119.611L248.232 126.476L251.45 114.974L225.147 109.428C223.259 107.8 220.977 106.614 218.492 105.969Z" fill="#FFB6B6"/>
<path d="M265.071 65.2078L269.199 110.889L232.226 111.257L225.051 121.479C225.051 121.479 269.864 145.483 283.32 133.217C296.776 120.952 302.763 69.3378 290.799 60.503C278.836 51.6682 265.071 65.2078 265.071 65.2078Z" fill="#E6E6E6"/>
<path d="M143.956 147.688C150.394 147.239 155.363 143.802 155.054 140.012C154.745 136.221 149.275 133.513 142.834 133.962C140.258 134.109 137.758 134.825 135.543 136.049L108.288 138.268L109.687 150.078L136.407 146.636C138.796 147.54 141.385 147.9 143.956 147.688Z" fill="#A0616A"/>
<path d="M64.248 92.2095L68.7014 143.671C68.7014 143.671 70.1043 154.761 88.7741 154.066C107.444 153.371 132.242 147.919 132.242 147.919L131.346 135.909L110.478 136.958C110.478 136.958 100.919 134.303 98.911 135.673C96.9032 137.044 97.6867 138.804 95.9091 136.575C94.1316 134.346 95.1633 133.068 93.3901 134.852C91.6169 136.636 91.0905 139.864 90.3266 135.796C89.5627 131.727 87.6602 132.452 87.6602 132.452L88.777 94.9731C88.777 94.9731 84.2401 76.8429 73.714 82.3064C63.1879 87.7698 64.248 92.2095 64.248 92.2095Z" fill="#6C63FF"/>
</g>
</svg>
